<mxfile host="app.diagrams.net" agent="Mozilla/5.0 (X11; Linux x86_64; rv:128.0) Gecko/20100101 Firefox/128.0" version="27.1.4">
  <diagram name="Page-1" id="g4EeZHsc9aeMXIE13Wvp">
    <mxGraphModel dx="1414" dy="786" grid="1" gridSize="10" guides="1" tooltips="1" connect="1" arrows="1" fold="1" page="1" pageScale="1" pageWidth="850" pageHeight="1100" math="0" shadow="0">
      <root>
        <mxCell id="0" />
        <mxCell id="1" parent="0" />
        <mxCell id="XUGjwPrpyfuRAn53oK7v-1" value="&lt;div&gt;ðŸš€&lt;br&gt;&lt;/div&gt;" style="whiteSpace=wrap;html=1;aspect=fixed;rounded=1;shadow=1;glass=0;fillColor=#dae8fc;gradientColor=#7ea6e0;strokeColor=#6c8ebf;fontSize=40;" vertex="1" parent="1">
          <mxGeometry x="170" y="230" width="130" height="130" as="geometry" />
        </mxCell>
        <mxCell id="XUGjwPrpyfuRAn53oK7v-2" value="ðŸ›¸" style="whiteSpace=wrap;html=1;aspect=fixed;rounded=1;shadow=1;glass=0;fillColor=#f8cecc;strokeColor=#b85450;gradientColor=#ea6b66;fontSize=40;" vertex="1" parent="1">
          <mxGeometry x="320" y="230" width="130" height="130" as="geometry" />
        </mxCell>
        <mxCell id="XUGjwPrpyfuRAn53oK7v-3" value="2" style="whiteSpace=wrap;html=1;aspect=fixed;shadow=1;glass=1;fontSize=30;fillColor=#d5e8d4;strokeColor=#82b366;" vertex="1" parent="1">
          <mxGeometry x="170" y="380" width="80" height="80" as="geometry" />
        </mxCell>
        <mxCell id="XUGjwPrpyfuRAn53oK7v-6" value="3" style="whiteSpace=wrap;html=1;aspect=fixed;shadow=1;glass=1;fontSize=30;fillColor=#d5e8d4;strokeColor=#82b366;" vertex="1" parent="1">
          <mxGeometry x="270" y="380" width="80" height="80" as="geometry" />
        </mxCell>
        <mxCell id="XUGjwPrpyfuRAn53oK7v-7" value="4" style="whiteSpace=wrap;html=1;aspect=fixed;shadow=1;glass=1;fontSize=30;fillColor=#d5e8d4;strokeColor=#82b366;" vertex="1" parent="1">
          <mxGeometry x="370" y="380" width="80" height="80" as="geometry" />
        </mxCell>
        <mxCell id="XUGjwPrpyfuRAn53oK7v-9" value="" style="whiteSpace=wrap;html=1;aspect=fixed;rounded=0;fillColor=#e1d5e7;strokeColor=#9673a6;" vertex="1" parent="1">
          <mxGeometry x="470" y="230" width="230" height="230" as="geometry" />
        </mxCell>
        <mxCell id="XUGjwPrpyfuRAn53oK7v-11" value="" style="rounded=1;whiteSpace=wrap;html=1;shadow=1;fillColor=#ffcccc;strokeColor=#36393d;" vertex="1" parent="1">
          <mxGeometry x="480" y="240" width="210" height="60" as="geometry" />
        </mxCell>
        <mxCell id="XUGjwPrpyfuRAn53oK7v-12" value="" style="rounded=1;whiteSpace=wrap;html=1;shadow=1;fillColor=#dae8fc;strokeColor=#6c8ebf;" vertex="1" parent="1">
          <mxGeometry x="480" y="315" width="210" height="60" as="geometry" />
        </mxCell>
        <mxCell id="XUGjwPrpyfuRAn53oK7v-13" value="" style="rounded=1;whiteSpace=wrap;html=1;glass=1;rotation=-180;shadow=0;fillColor=#f8cecc;strokeColor=#b85450;" vertex="1" parent="1">
          <mxGeometry x="480" y="390" width="210" height="60" as="geometry" />
        </mxCell>
        <mxCell id="XUGjwPrpyfuRAn53oK7v-14" value="ðŸ›¸" style="whiteSpace=wrap;html=1;aspect=fixed;rounded=1;fillColor=#f8cecc;strokeColor=#b85450;gradientColor=#ea6b66;glass=0;shadow=1;fontSize=20;" vertex="1" parent="1">
          <mxGeometry x="480" y="240" width="60" height="60" as="geometry" />
        </mxCell>
        <mxCell id="XUGjwPrpyfuRAn53oK7v-15" value="&lt;div&gt;ðŸš€&lt;br&gt;&lt;/div&gt;" style="whiteSpace=wrap;html=1;aspect=fixed;rounded=1;shadow=1;fillColor=#dae8fc;gradientColor=#7ea6e0;strokeColor=#6c8ebf;fontSize=20;" vertex="1" parent="1">
          <mxGeometry x="480" y="315" width="60" height="60" as="geometry" />
        </mxCell>
        <mxCell id="XUGjwPrpyfuRAn53oK7v-16" value="ðŸ›¸" style="whiteSpace=wrap;html=1;aspect=fixed;rounded=1;shadow=0;glass=1;rotation=-180;fillColor=#f8cecc;strokeColor=#b85450;fontSize=20;horizontal=1;" vertex="1" parent="1">
          <mxGeometry x="479" y="390" width="60" height="60" as="geometry" />
        </mxCell>
        <mxCell id="XUGjwPrpyfuRAn53oK7v-17" value="TEST" style="rounded=1;whiteSpace=wrap;html=1;labelBackgroundColor=none;fontColor=light-dark(#000000,#FFFFFF);fontStyle=1;fontSize=20;opacity=0;" vertex="1" parent="1">
          <mxGeometry x="175" y="320" width="120" height="30" as="geometry" />
        </mxCell>
        <mxCell id="XUGjwPrpyfuRAn53oK7v-18" value="LEVEL 2" style="rounded=1;whiteSpace=wrap;html=1;labelBackgroundColor=none;fontColor=light-dark(#000000,#FFFFFF);fontStyle=1;fontSize=20;opacity=0;" vertex="1" parent="1">
          <mxGeometry x="325" y="320" width="120" height="30" as="geometry" />
        </mxCell>
        <mxCell id="XUGjwPrpyfuRAn53oK7v-19" value="" style="rounded=0;whiteSpace=wrap;html=1;" vertex="1" parent="1">
          <mxGeometry x="550" y="250" width="60" height="20" as="geometry" />
        </mxCell>
        <mxCell id="XUGjwPrpyfuRAn53oK7v-20" value="" style="rounded=0;whiteSpace=wrap;html=1;" vertex="1" parent="1">
          <mxGeometry x="550" y="270" width="60" height="20" as="geometry" />
        </mxCell>
        <mxCell id="XUGjwPrpyfuRAn53oK7v-21" value="" style="rounded=0;whiteSpace=wrap;html=1;" vertex="1" parent="1">
          <mxGeometry x="620" y="250" width="60" height="20" as="geometry" />
        </mxCell>
        <mxCell id="XUGjwPrpyfuRAn53oK7v-22" value="" style="rounded=0;whiteSpace=wrap;html=1;" vertex="1" parent="1">
          <mxGeometry x="620" y="270" width="60" height="20" as="geometry" />
        </mxCell>
        <mxCell id="XUGjwPrpyfuRAn53oK7v-23" value="" style="rounded=0;whiteSpace=wrap;html=1;" vertex="1" parent="1">
          <mxGeometry x="550" y="325" width="60" height="20" as="geometry" />
        </mxCell>
        <mxCell id="XUGjwPrpyfuRAn53oK7v-24" value="" style="rounded=0;whiteSpace=wrap;html=1;" vertex="1" parent="1">
          <mxGeometry x="620" y="325" width="60" height="20" as="geometry" />
        </mxCell>
        <mxCell id="XUGjwPrpyfuRAn53oK7v-25" value="" style="rounded=0;whiteSpace=wrap;html=1;" vertex="1" parent="1">
          <mxGeometry x="580" y="350" width="70" height="20" as="geometry" />
        </mxCell>
        <mxCell id="XUGjwPrpyfuRAn53oK7v-26" value="" style="rounded=0;whiteSpace=wrap;html=1;" vertex="1" parent="1">
          <mxGeometry x="550" y="400" width="60" height="20" as="geometry" />
        </mxCell>
        <mxCell id="XUGjwPrpyfuRAn53oK7v-27" value="" style="rounded=0;whiteSpace=wrap;html=1;" vertex="1" parent="1">
          <mxGeometry x="620" y="400" width="60" height="20" as="geometry" />
        </mxCell>
        <mxCell id="XUGjwPrpyfuRAn53oK7v-28" value="" style="rounded=0;whiteSpace=wrap;html=1;" vertex="1" parent="1">
          <mxGeometry x="550" y="420" width="60" height="20" as="geometry" />
        </mxCell>
        <mxCell id="XUGjwPrpyfuRAn53oK7v-29" value="" style="rounded=0;whiteSpace=wrap;html=1;" vertex="1" parent="1">
          <mxGeometry x="620" y="420" width="60" height="20" as="geometry" />
        </mxCell>
        <mxCell id="XUGjwPrpyfuRAn53oK7v-30" value="GAME SETUP" style="rounded=0;whiteSpace=wrap;html=1;fontSize=25;opacity=0;" vertex="1" parent="1">
          <mxGeometry x="187.5" y="190" width="245" height="40" as="geometry" />
        </mxCell>
        <mxCell id="XUGjwPrpyfuRAn53oK7v-31" value="SAVED GAMES" style="rounded=0;whiteSpace=wrap;html=1;fontSize=25;opacity=0;" vertex="1" parent="1">
          <mxGeometry x="480" y="190" width="211" height="40" as="geometry" />
        </mxCell>
        <mxCell id="XUGjwPrpyfuRAn53oK7v-32" value="&lt;font style=&quot;font-size: 20px;&quot;&gt;CANCEL&lt;/font&gt;" style="rounded=1;whiteSpace=wrap;html=1;fillColor=#f8cecc;strokeColor=#b85450;gradientColor=#ea6b66;glass=1;sketch=1;curveFitting=1;jiggle=2;shadow=1;" vertex="1" parent="1">
          <mxGeometry x="312.5" y="490" width="120" height="40" as="geometry" />
        </mxCell>
        <mxCell id="XUGjwPrpyfuRAn53oK7v-33" value="&lt;font style=&quot;font-size: 20px;&quot;&gt;OPEN&lt;/font&gt;" style="rounded=1;whiteSpace=wrap;html=1;glass=1;sketch=1;curveFitting=1;jiggle=2;shadow=1;fillColor=#dae8fc;strokeColor=#6c8ebf;gradientColor=#7ea6e0;" vertex="1" parent="1">
          <mxGeometry x="450" y="490" width="120" height="40" as="geometry" />
        </mxCell>
      </root>
    </mxGraphModel>
  </diagram>
</mxfile>
